<!DOCTYPE svg PUBLIC "-//W3C//DTD SVG 1.1//EN" "http://www.w3.org/Graphics/SVG/1.1/DTD/svg11.dtd">
<!-- Uploaded to: SVG Repo, www.svgrepo.com, Transformed by: SVG Repo Mixer Tools -->
<svg version="1.1" id="Layer_1" xmlns="http://www.w3.org/2000/svg" xmlns:xlink="http://www.w3.org/1999/xlink" viewBox="0 0 511.999 511.999" xml:space="preserve" width="800px" height="800px" fill="#000000">
<g id="SVGRepo_bgCarrier" stroke-width="0"/>
<g id="SVGRepo_tracerCarrier" stroke-linecap="round" stroke-linejoin="round"/>
<g id="SVGRepo_iconCarrier"> <circle style="fill:#b53af8;" cx="255.999" cy="255.999" r="255.999"/> <rect x="212.185" y="364.997" style="fill:#E6E6E6;" width="88.004" height="36"/> <path style="fill:#007ab8;" d="M84,328V149.365c0-5.004,3.408-5.364,8.188-5.364h328c4.784,0,7.812,0.36,7.812,5.364V328H84z"/> <path style="fill:#ece9e9;" d="M84,328v29c0,4.78,3.408,11,8.188,11h328c4.784,0,7.812-6.22,7.812-11v-29H84z"/> <rect x="99.999" y="160.002" style="fill:#f8f2f2;" width="312.001" height="151.999"/> <path style="fill:#ece9e9;" d="M328.188,409c0-4.4-3.6-8-8-8H192.188c-4.4,0-8,3.6-8,8l0,0c0,4.4,3.6,8,8,8h128 C324.584,417,328.188,413.4,328.188,409L328.188,409z"/> <g> <circle style="fill:#007ab8;" cx="256.192" cy="344.999" r="8"/> <path style="fill:#007ab8;" d="M356.352,209.316c-14.348,0-26.024,11.668-26.024,26.024c0,14.348,11.676,26.028,26.024,26.028 c14.356,0,26.032-11.68,26.032-26.028C382.384,220.984,370.708,209.316,356.352,209.316z M356.352,248.352 c-7.179,0-13.008-5.828-13.008-13.012c0-7.185,5.832-13.012,13.008-13.012c7.188,0,13.02,5.828,13.02,13.012 C369.372,242.524,363.54,248.352,356.352,248.352z"/> <path style="fill:#007ab8;" d="M396.848,236.288c-0.416-0.112-0.836-0.16-1.248-0.22c0.104-3.852-0.352-7.62-1.336-11.26 c0.408-0.152,0.828-0.168,1.192-0.372c4.752-2.64,6.456-8.64,3.801-13.384c-2.64-4.752-8.62-6.456-13.368-3.804 c-0.368,0.22-0.616,0.564-0.952,0.816c-2.568-2.74-5.54-5.112-8.884-7.048c0.156-0.388,0.352-0.764,0.472-1.176 c1.48-5.228-1.548-10.66-6.768-12.148c-5.228-1.484-10.664,1.564-12.156,6.772c-0.104,0.412-0.156,0.836-0.212,1.24 c-3.852-0.104-7.632,0.356-11.252,1.333c-0.16-0.4-0.172-0.811-0.388-1.192c-2.64-4.748-8.62-6.444-13.368-3.796 c-4.752,2.636-6.46,8.636-3.82,13.368c0.232,0.392,0.584,0.608,0.828,0.952c-2.752,2.568-5.124,5.548-7.06,8.88 c-0.396-0.172-0.752-0.348-1.18-0.472c-5.232-1.476-10.66,1.544-12.14,6.772c-1.492,5.224,1.552,10.668,6.768,12.152 c0.408,0.112,0.836,0.152,1.24,0.212c-0.104,3.872,0.352,7.628,1.332,11.252c-0.408,0.16-0.804,0.184-1.192,0.388 c-4.752,2.64-6.44,8.64-3.801,13.392c2.64,4.732,8.636,6.432,13.368,3.796c0.392-0.216,0.616-0.576,0.968-0.82 c2.572,2.74,5.524,5.112,8.868,7.048c-0.172,0.396-0.36,0.78-0.476,1.18c-1.484,5.228,1.548,10.664,6.768,12.16 c5.224,1.472,10.68-1.568,12.156-6.784c0.124-0.408,0.16-0.832,0.232-1.244c3.852,0.108,7.616-0.352,11.252-1.336 c0.144,0.412,0.156,0.828,0.368,1.2c2.644,4.752,8.64,6.44,13.396,3.8c4.728-2.636,6.432-8.636,3.796-13.376 c-0.212-0.388-0.564-0.608-0.813-0.96c2.732-2.556,5.1-5.532,7.032-8.868c0.392,0.16,0.78,0.352,1.188,0.472 c5.224,1.484,10.656-1.552,12.156-6.772C405.1,243.224,402.064,237.784,396.848,236.288z M356.352,265.704 c-16.744,0-30.36-13.62-30.36-30.364s13.624-30.364,30.36-30.364c16.752,0,30.368,13.62,30.368,30.364 S373.092,265.704,356.352,265.704z"/> </g> <rect x="112.004" y="260.001" style="fill:#cdbb4c;" width="20" height="39.995"/> <rect x="151.999" y="288.002" style="fill:#c49a27;" width="20" height="12"/> <rect x="271.996" y="251.998" style="fill:#198058;" width="20" height="47.999"/> <rect x="188.003" y="232" style="fill:#5de84a;" width="24" height="68"/> <rect x="232" y="195.996" style="fill:#66ff99;" width="20" height="104"/> </g>
</svg>